# File created by Blade
# Date/Time:  Tue Sep 30 19:31:19 2014
#---------------------------------------------------------
:version 1.10
:name HOM
:units
  mass 1.0
  length 1.000000
  angle deg
:documentation
     Acclaim Skeleton File
:root
   axis xyz
   order TX TY TZ RX RY RZ
   position 0.000000 0.000000 0.000000
   orientation 0 0 0
:bonedata
   begin
      id 1
      name Spine_dum
      direction 0.000000 1.000000 0.000000
      length 3.241213
      axis 0.0 0.0 0.0 xyz
   end
   begin
      id 2
      name LeftUpLeg_dum
      direction 1.000000 0.000000 0.000000
      length 3.434019
      axis 0.0 0.0 0.0 xyz
   end
   begin
      id 3
      name RightUpLeg_dum
      direction -1.000000 0.000000 0.000000
      length 3.434019
      axis 0.0 0.0 0.0 xyz
   end
   begin
      id 4
      name Spine
      direction 0.000000 1.000000 0.000000
      length 0.000000
      axis 0.0 0.0 0.0 xyz
      dof rx ry rz
   end
   begin
      id 5
      name Spine_dum1
      direction 0.000000 1.000000 0.000000
      length 18.382958
      axis 0.0 0.0 0.0 xyz
   end
   begin
      id 6
      name Spine_dum2
      direction 0.000000 1.000000 0.000000
      length 12.828261
      axis 0.0 0.0 0.0 xyz
   end
   begin
      id 7
      name Spine_dum3
      direction 0.000000 1.000000 0.000000
      length 12.828261
      axis 0.0 0.0 0.0 xyz
   end
   begin
      id 8
      name Head
      direction 0.000000 1.000000 0.000000
      length 4.527550
      axis 0.0 0.0 0.0 xyz
      dof rx ry rz
   end
   begin
      id 9
      name LeftShoulder
      direction 1.000000 0.000000 0.000000
      length 7.748055
      axis 0.0 0.0 -90.0 xyz
      dof rx ry rz
   end
   begin
      id 10
      name LeftArm
      direction 1.000000 0.000000 0.000000
      length 10.635614
      axis 0.0 0.0 -90.0 xyz
      dof rx ry rz
   end
   begin
      id 11
      name LeftForeArm
      direction 1.000000 0.000000 0.000000
      length 8.346755
      axis 0.0 0.0 -90.0 xyz
      dof ry rz rx
   end
   begin
      id 12
      name LeftHand
      direction 0.000000 0.000000 0.000000
      length 0.000000
      axis 0.0 0.0 -90.0 xyz
      dof rx ry rz
   end
   begin
      id 13
      name LeftHand_dum1
      direction 0.000000 0.000000 0.000000
      length 0.000000
      axis 0.0 0.0 -90.0 xyz
   end
   begin
      id 14
      name LeftHand_dum2
      direction 1.000000 0.000000 0.000000
      length 3.937000
      axis 0.0 0.0 -90.0 xyz
   end
   begin
      id 15
      name LeftHandThumb1
      direction 0.000000 0.000000 1.000000
      length 3.937000
      axis 0.0 0.0 -90.0 xyz
      dof rx rz ry
   end
   begin
      id 16
      name RightShoulder
      direction -1.000000 0.000000 0.000000
      length 7.748055
      axis 0.0 0.0 90.0 xyz
      dof rx ry rz
   end
   begin
      id 17
      name RightArm
      direction -1.000000 0.000000 0.000000
      length 10.635614
      axis 0.0 0.0 90.0 xyz
      dof rx ry rz
   end
   begin
      id 18
      name RightForeArm
      direction -1.000000 0.000000 0.000000
      length 8.346755
      axis 0.0 0.0 90.0 xyz
      dof ry rz rx
   end
   begin
      id 19
      name RightHand
      direction 0.000000 0.000000 0.000000
      length 0.000000
      axis 0.0 0.0 90.0 xyz
      dof rx ry rz
   end
   begin
      id 20
      name RightHand_dum1
      direction 0.000000 0.000000 0.000000
      length 0.000000
      axis 0.0 0.0 90.0 xyz
   end
   begin
      id 21
      name RightHand_dum2
      direction -1.000000 0.000000 0.000000
      length 3.937000
      axis 0.0 0.0 90.0 xyz
   end
   begin
      id 22
      name RightHandThumb1
      direction 0.000000 0.000000 1.000000
      length 3.937000
      axis 0.0 0.0 90.0 xyz
      dof rx rz ry
   end
   begin
      id 23
      name LeftUpLeg
      direction 0.000000 -1.000000 0.000000
      length 15.713025
      axis 0.0 0.0 0.0 xyz
      dof rx ry rz
   end
   begin
      id 24
      name LeftLeg
      direction 0.000000 -1.000000 0.000000
      length 14.435119
      axis 0.0 0.0 0.0 xyz
      dof rx ry rz
   end
   begin
      id 25
      name LeftFoot
      direction 0.000000 -0.258819 0.965926
      length 4.938895
      axis 15.0 0.0 0.0 xyz
      dof rx ry rz
   end
   begin
      id 26
      name LeftToeBase
      direction 0.000000 0.000000 1.000000
      length 2.952750
      axis 0.0 0.0 0.0 xyz
      dof rx ry rz
   end
   begin
      id 27
      name RightUpLeg
      direction 0.000000 -1.000000 0.000000
      length 15.713025
      axis 0.0 0.0 0.0 xyz
      dof rx ry rz
   end
   begin
      id 28
      name RightLeg
      direction 0.000000 -1.000000 0.000000
      length 14.435119
      axis 0.0 0.0 0.0 xyz
      dof rx ry rz
   end
   begin
      id 29
      name RightFoot
      direction 0.000000 -0.258819 0.965926
      length 4.938895
      axis 15.0 0.0 0.0 xyz
      dof rx ry rz
   end
   begin
      id 30
      name RightToeBase
      direction 0.000000 0.000000 1.000000
      length 2.952750
      axis 0.0 0.0 0.0 xyz
      dof rx ry rz
   end
:hierarchy
   begin
      root Spine_dum LeftUpLeg_dum RightUpLeg_dum
      Spine_dum Spine
      LeftUpLeg_dum LeftUpLeg
      RightUpLeg_dum RightUpLeg
      Spine Spine_dum1 Spine_dum2 Spine_dum3
      Spine_dum1 Head
      Spine_dum2 LeftShoulder
      Spine_dum3 RightShoulder
      LeftShoulder LeftArm
      LeftArm LeftForeArm
      LeftForeArm LeftHand
      LeftHand LeftHand_dum1 LeftHand_dum2
      LeftHand_dum1 LeftHandThumb1
      RightShoulder RightArm
      RightArm RightForeArm
      RightForeArm RightHand
      RightHand RightHand_dum1 RightHand_dum2
      RightHand_dum1 RightHandThumb1
      LeftUpLeg LeftLeg
      LeftLeg LeftFoot
      LeftFoot LeftToeBase
      RightUpLeg RightLeg
      RightLeg RightFoot
      RightFoot RightToeBase
   end

# File created by Blade
# Date/Time:  Thu Sep 25 17:54:10 2014
# Frame Rate: 120.000 fps
#------------------------------------------------------
:FULLY-SPECIFIED
:DEGREES
1354
root 0.768869 32.643817 -5.599055 24.101626 1.703616 -0.182189
Spine -27.911182 -10.786604 7.445509
Head 30.907743 28.013561 18.439688
LeftShoulder -21.604162 25.535310 53.586200
LeftArm 209.107014 -31.918103 -120.110360
LeftForeArm -13.489001 -0.000000 124.418252
LeftHand -6.641841 -0.000000 -23.811701
LeftHandThumb1 -26.253704 0.000000 33.147579
RightShoulder -50.854103 -60.577031 -11.018409
RightArm 105.551065 38.863454 145.871519
RightForeArm 73.315589 -0.000000 134.543340
RightHand 13.010215 -0.000000 -0.806964
RightHandThumb1 -24.326973 -0.000000 -32.862282
LeftUpLeg -16.758944 4.062753 -0.911194
LeftLeg -1.798120 -0.000000 0.000000
LeftFoot -4.646725 -2.542016 -1.814383
LeftToeBase 3.509385 -0.000000 -0.000000
RightUpLeg -16.466164 -9.514873 3.058518
RightLeg -2.762060 -0.000000 0.000000
RightFoot -6.552525 -0.290215 12.617711
RightToeBase 15.632428 -0.000000 -0.000000
1355
root 0.768701 32.643594 -5.600821 24.110026 1.703409 -0.182101
Spine -27.925054 -10.774008 7.448431
Head 30.900929 27.971091 18.401827
LeftShoulder -21.601911 25.556840 53.562685
LeftArm 209.121157 -31.879839 -120.127328
LeftForeArm -13.433062 -0.000000 124.397211
LeftHand -6.631251 -0.000000 -23.958721
LeftHandThumb1 -26.253704 0.000000 33.147579
RightShoulder -50.796165 -60.551779 -11.092758
RightArm 105.558376 38.866395 145.842720
RightForeArm 73.308819 -0.000000 134.528327
RightHand 13.011057 -0.000000 -0.849942
RightHandThumb1 -24.326973 -0.000000 -32.862282
LeftUpLeg -16.773477 4.069503 -0.914428
LeftLeg -1.793785 -0.000000 0.000000
LeftFoot -4.639771 -2.539377 -1.782407
LeftToeBase 3.450637 -0.000000 -0.000000
RightUpLeg -16.487954 -9.548933 3.074616
RightLeg -2.746104 -0.000000 0.000000
RightFoot -6.564369 -0.256887 12.562613
RightToeBase 15.660546 -0.000000 -0.000000
1356
root 0.767559 32.643609 -5.602900 24.122900 1.698388 -0.180217
Spine -27.943425 -10.763209 7.446197
Head 30.893340 27.939516 18.366878
LeftShoulder -21.676059 25.601349 53.505456
LeftArm 209.072925 -31.835948 -120.094992
LeftForeArm -13.446478 -0.000000 124.415507
LeftHand -6.454553 -0.000000 -24.179476
LeftHandThumb1 -26.253704 0.000000 33.147579
RightShoulder -50.759966 -60.573005 -11.136306
RightArm 105.610433 38.836940 145.889686
RightForeArm 73.342290 -0.000000 134.520228
RightHand 13.026681 -0.000000 -0.876502
RightHandThumb1 -24.326973 -0.000000 -32.862282
LeftUpLeg -16.792579 4.075994 -0.916460
LeftLeg -1.787886 -0.000000 0.000000
LeftFoot -4.655458 -2.550847 -1.821320
LeftToeBase 3.489609 -0.000000 -0.000000
RightUpLeg -16.488954 -9.508865 3.061193
RightLeg -2.774767 -0.000000 0.000000
RightFoot -6.523229 -0.276034 12.662336
RightToeBase 15.567991 -0.000000 -0.000000
1357
root 0.767503 32.643894 -5.604766 24.134576 1.708423 -0.168035
Spine -27.960974 -10.769065 7.441878
Head 30.877526 27.906630 18.310787
LeftShoulder -21.634877 25.531397 53.543524
LeftArm 209.014742 -31.920531 -120.104882
LeftForeArm -13.501472 -0.000000 124.379718
LeftHand -6.593366 -0.000000 -23.979390
LeftHandThumb1 -26.253704 0.000000 33.147579
RightShoulder -50.655256 -60.534744 -11.267480
RightArm 105.606044 38.863827 145.858960
RightForeArm 73.366580 -0.000000 134.512258
RightHand 13.027676 0.000000 -0.879522
RightHandThumb1 -24.326973 -0.000000 -32.862282
LeftUpLeg -16.811991 4.059966 -0.922883
LeftLeg -1.780776 -0.000000 0.000000
LeftFoot -4.647850 -2.559963 -1.834223
LeftToeBase 3.563891 -0.000000 -0.000000
RightUpLeg -16.515211 -9.561805 3.071564
RightLeg -2.753713 -0.000000 0.000000
RightFoot -6.555464 -0.246616 12.619478
RightToeBase 15.644778 -0.000000 -0.000000
1358
root 0.766090 32.644343 -5.606612 24.132468 1.713932 -0.167340
Spine -27.961310 -10.761869 7.430533
Head 30.864755 27.870778 18.270668
LeftShoulder -21.630302 25.562781 53.542731
LeftArm 209.012678 -31.890211 -120.135505
LeftForeArm -13.657784 0.000000 124.348615
LeftHand -6.416513 -0.000000 -24.182184
LeftHandThumb1 -26.253704 0.000000 33.147579
RightShoulder -50.615678 -60.530597 -11.324461
RightArm 105.625026 38.842227 145.855231
RightForeArm 73.461300 -0.000000 134.512868
RightHand 13.057388 -0.000000 -0.911194
RightHandThumb1 -24.326973 -0.000000 -32.862282
LeftUpLeg -16.818689 4.046853 -0.915937
LeftLeg -1.770868 -0.000000 0.000000
LeftFoot -4.634854 -2.539008 -1.808716
LeftToeBase 3.487891 -0.000000 -0.000000
RightUpLeg -16.518906 -9.566107 3.078256
RightLeg -2.747788 -0.000000 0.000000
RightFoot -6.573640 -0.272891 12.536980
RightToeBase 15.694348 -0.000000 -0.000000
1359
root 0.764034 32.645582 -5.609392 24.126870 1.712375 -0.164916
Spine -27.958231 -10.741503 7.406544
Head 30.862381 27.831554 18.228163
LeftShoulder -21.669937 25.574165 53.505227
LeftArm 208.968098 -31.865082 -120.108599
LeftForeArm -13.643407 -0.000000 124.347265
LeftHand -6.440025 -0.000000 -24.189647
LeftHandThumb1 -26.253704 0.000000 33.147579
RightShoulder -50.558430 -60.495890 -11.405165
RightArm 105.615483 38.860017 145.799598
RightForeArm 73.431066 0.000000 134.495788
RightHand 13.079064 -0.000000 -0.928073
RightHandThumb1 -24.326973 -0.000000 -32.862282
LeftUpLeg -16.826215 4.035403 -0.909068
LeftLeg -1.754160 -0.000000 0.000000
LeftFoot -4.628573 -2.538488 -1.831740
LeftToeBase 3.479162 -0.000000 -0.000000
RightUpLeg -16.521409 -9.559522 3.077309
RightLeg -2.742779 -0.000000 0.000000
RightFoot -6.550385 -0.264053 12.566871
RightToeBase 15.636082 -0.000000 -0.000000
1360
root 0.761321 32.646309 -5.610322 24.116386 1.717033 -0.160738
Spine -27.953111 -10.738535 7.386426
Head 30.865395 27.808236 18.176055
LeftShoulder -21.668332 25.574230 53.497627
LeftArm 208.946503 -31.890961 -120.123227
LeftForeArm -13.676813 -0.000000 124.349923
LeftHand -6.478109 -0.000000 -24.111741
LeftHandThumb1 -26.253704 0.000000 33.147579
RightShoulder -50.469100 -60.458556 -11.502630
RightArm 105.630877 38.873728 145.779098
RightForeArm 73.446340 -0.000000 134.499853
RightHand 13.108940 -0.000000 -0.981462
RightHandThumb1 -24.326973 -0.000000 -32.862282
LeftUpLeg -16.824876 4.036330 -0.906119
LeftLeg -1.740903 -0.000000 0.000000
LeftFoot -4.630229 -2.554678 -1.858460
LeftToeBase 3.473901 -0.000000 -0.000000
RightUpLeg -16.518261 -9.575861 3.084986
RightLeg -2.732446 -0.000000 0.000000
RightFoot -6.562482 -0.269501 12.547589
RightToeBase 15.664376 -0.000000 -0.000000
1361
root 0.758212 32.646942 -5.612283 24.109736 1.723699 -0.161157
Spine -27.948947 -10.737588 7.365652
Head 30.864698 27.788243 18.121911
LeftShoulder -21.674267 25.571331 53.484563
LeftArm 208.931178 -31.919532 -120.145322
LeftForeArm -13.609225 -0.000000 124.338826
LeftHand -6.593997 0.000000 -23.993521
LeftHandThumb1 -26.253704 0.000000 33.147579
RightShoulder -50.441600 -60.474829 -11.524832
RightArm 105.718432 38.833596 145.857904
RightForeArm 73.325917 0.000000 134.463791
RightHand 13.064037 0.000000 -0.775850
RightHandThumb1 -24.326973 -0.000000 -32.862282
LeftUpLeg -16.829641 4.029291 -0.896201
LeftLeg -1.728965 -0.000000 0.000000
LeftFoot -4.625008 -2.544635 -1.832947
LeftToeBase 3.460383 -0.000000 -0.000000
RightUpLeg -16.523289 -9.582753 3.093190
RightLeg -2.716811 -0.000000 0.000000
RightFoot -6.553811 -0.266918 12.556910
RightToeBase 15.636917 -0.000000 -0.000000
1362
root 0.754580 32.647408 -5.614625 24.099500 1.734236 -0.156186
Spine -27.939338 -10.735057 7.336144
Head 30.858618 27.764306 18.048054
LeftShoulder -21.671620 25.572617 53.461209
LeftArm 208.924919 -31.947650 -120.178330
LeftForeArm -13.644127 -0.000000 124.329732
LeftHand -6.633941 -0.000000 -23.908299
LeftHandThumb1 -26.253704 0.000000 33.147579
RightShoulder -50.347497 -60.429124 -11.627233
RightArm 105.775717 38.870162 145.865774
RightForeArm 73.290532 0.000000 134.454719
RightHand 13.032526 0.000000 -0.777234
RightHandThumb1 -24.326973 -0.000000 -32.862282
LeftUpLeg -16.836183 4.010705 -0.888251
LeftLeg -1.705093 -0.000000 0.000000
LeftFoot -4.625124 -2.530132 -1.840214
LeftToeBase 3.448808 -0.000000 -0.000000
RightUpLeg -16.511569 -9.563292 3.086277
RightLeg -2.722249 -0.000000 0.000000
RightFoot -6.558206 -0.295033 12.552487
RightToeBase 15.651490 -0.000000 -0.000000
1363
root 0.750098 32.647829 -5.616787 24.093516 1.743153 -0.154737
Spine -27.937557 -10.730842 7.311468
Head 30.872899 27.765007 17.984319
LeftShoulder -21.669272 25.585921 53.445701
LeftArm 208.917463 -31.945292 -120.210198
LeftForeArm -13.643064 -0.000000 124.330106
LeftHand -6.660544 -0.000000 -23.941316
LeftHandThumb1 -26.253704 0.000000 33.147579
RightShoulder -50.288239 -60.414332 -11.708641
RightArm 105.847807 38.866882 145.893714
RightForeArm 73.347180 -0.000000 134.459293
RightHand 13.024555 -0.000000 -0.872521
RightHandThumb1 -24.326973 -0.000000 -32.862282
LeftUpLeg -16.844791 4.001485 -0.877826
LeftLeg -1.685917 -0.000000 0.000000
LeftFoot -4.627778 -2.528460 -1.844645
LeftToeBase 3.478726 -0.000000 -0.000000
RightUpLeg -16.515203 -9.561192 3.091155
RightLeg -2.710927 -0.000000 0.000000
RightFoot -6.529846 -0.273809 12.655540
RightToeBase 15.519344 -0.000000 -0.000000
